# xmcd
#
# Track frame offsets:
#	150
#	15515
#	30705
#	42117
#	55595
#	70207
#	89837
#	99907
#	114005
#	128220
#	135625
#	146845
#	153675
#	167765
#	184655
#
# Disc length: 2666 seconds
#
# Revision: 1
# Processed by: cddbd v1.5.1PL0 Copyright (c) Steve Scherf et al.
# Submitted via: CDex 1.50Beta5
#
DISCID=c60a680f
DTITLE=2Shy4U - ドキドキ伝説魔法陣グルグル オリジナル・サウンドトラック
DYEAR=2000
DGENRE=
TTITLE0=2Shy4U/ダイナマイトヘブン
TTITLE1=TVサントラ/さぁ、出発だ!
TTITLE2=TVサントラ/明るくほのぼの
TTITLE3=TVサントラ/勇者はカッコよく
TTITLE4=TVサントラ/やさしい気持ち
TTITLE5=TVサントラ/懐かしさに包まれて
TTITLE6=TVサントラ/怪しい闇魔法結社
TTITLE7=TVサントラ/不思議な仲間たち
TTITLE8=TVサントラ/神秘的な世界
TTITLE9=TVサントラ/楽しいですぞ〜
TTITLE10=TVサントラ/不気味な予感
TTITLE11=TVサントラ/切り立った岩山に囲まれて
TTITLE12=TVサントラ/生き生き、キラキラ
TTITLE13=TVサントラ/コミカル・パワー
TTITLE14=Spoon/西の空へ
EXTD=
EXTT0=
EXTT1=
EXTT2=
EXTT3=
EXTT4=
EXTT5=
EXTT6=
EXTT7=
EXTT8=
EXTT9=
EXTT10=
EXTT11=
EXTT12=
EXTT13=
EXTT14=
PLAYORDER=
